KumbhSans-Thin.ufo
<glyph name="semicolon" format="1">
  <advance width="453"/>
  <unicode hex="003B"/>
  <outline>
    <contour>
      <point x="256" y="880" type="curve" smooth="yes"/>
      <point x="284.571" y="880"/>
      <point x="306" y="901.429"/>
      <point x="306" y="930" type="curve" smooth="yes"/>
      <point x="306" y="957.381"/>
      <point x="284.571" y="980"/>
      <point x="256" y="980" type="curve" smooth="yes"/>
      <point x="227.429" y="980"/>
      <point x="206" y="957.381"/>
      <point x="206" y="930" type="curve" smooth="yes"/>
      <point x="206" y="901.429"/>
      <point x="227.429" y="880"/>
    </contour>
    <contour>
      <point x="181" y="-240" type="line"/>
      <point x="298" y="180" type="line"/>
      <point x="249" y="180" type="line" name="av01"/>
      <point x="145" y="-240" type="line"/>
    </contour>
  </outline>
</glyph>
<glyph name="H" format="1">
  <advance width="1483"/>
  <unicode hex="0048"/>
  <outline>
    <contour>
      <point x="229" y="0" type="line"/>
      <point x="229" y="720" type="line"/>
      <point x="1254" y="720" type="line"/>
      <point x="1254" y="0" type="line"/>
      <point x="1298" y="0" type="line"/>
      <point x="1298" y="1500" type="line"/>
      <point x="1254" y="1500" type="line"/>
      <point x="1254" y="762" type="line"/>
      <point x="229" y="762" type="line"/>
      <point x="229" y="1500" type="line"/>
      <point x="185" y="1500" type="line"/>
      <point x="185" y="0" type="line"/>
    </contour>
  </outline>
</glyph>
<glyph name="f" format="1">
  <advance width="733"/>
  <unicode hex="0066"/>
  <outline>
    <contour>
      <point x="301" y="0" type="line"/>
      <point x="301" y="962" type="line"/>
      <point x="621" y="962" type="line"/>
      <point x="621" y="1000" type="line"/>
      <point x="301" y="1000" type="line"/>
      <point x="301" y="1267" type="line" smooth="yes"/>
      <point x="301" y="1403"/>
      <point x="378" y="1492"/>
      <point x="495" y="1492" type="curve" smooth="yes"/>
      <point x="539" y="1492"/>
      <point x="585" y="1479"/>
      <point x="632" y="1454" type="curve"/>
      <point x="648" y="1489" type="line"/>
      <point x="597" y="1516"/>
      <point x="543" y="1530"/>
      <point x="492" y="1530" type="curve" smooth="yes"/>
      <point x="352" y="1530"/>
      <point x="260" y="1429"/>
      <point x="260" y="1274" type="curve" smooth="yes"/>
      <point x="260" y="1000" type="line"/>
      <point x="85" y="1000" type="line"/>
      <point x="85" y="962" type="line"/>
      <point x="260" y="962" type="line"/>
      <point x="260" y="0" type="line"/>
    </contour>
  </outline>
</glyph>
<glyph name="t" format="1">
  <advance width="753"/>
  <unicode hex="0074"/>
  <outline>
    <contour>
      <point x="658" y="21" type="curve"/>
      <point x="642" y="56" type="line"/>
      <point x="595" y="31"/>
      <point x="549" y="18"/>
      <point x="505" y="18" type="curve" smooth="yes"/>
      <point x="388" y="18"/>
      <point x="311" y="107"/>
      <point x="311" y="243" type="curve" smooth="yes"/>
      <point x="311" y="962" type="line"/>
      <point x="631" y="962" type="line"/>
      <point x="631" y="1000" type="line"/>
      <point x="311" y="1000" type="line"/>
      <point x="311" y="1250" type="line"/>
      <point x="270" y="1250" type="line"/>
      <point x="270" y="1000" type="line"/>
      <point x="95" y="1000" type="line"/>
      <point x="95" y="962" type="line"/>
      <point x="270" y="962" type="line"/>
      <point x="270" y="236" type="line" smooth="yes"/>
      <point x="270" y="81"/>
      <point x="362" y="-20"/>
      <point x="502" y="-20" type="curve" smooth="yes"/>
      <point x="553" y="-20"/>
      <point x="607" y="-6"/>
    </contour>
  </outline>
</glyph>
<glyph name="y" format="1">
  <advance width="1082"/>
  <unicode hex="0079"/>
  <outline>
    <contour>
      <point x="376" y="-500" type="line"/>
      <point x="997" y="1000" type="line"/>
      <point x="953" y="1000" type="line"/>
      <point x="565" y="64" type="line"/>
      <point x="130" y="1000" type="line"/>
      <point x="85" y="1000" type="line"/>
      <point x="544" y="13" type="line"/>
      <point x="332" y="-500" type="line"/>
    </contour>
  </outline>
</glyph>
<glyph name="periodcentered" format="1">
  <advance width="434"/>
  <unicode hex="00B7"/>
  <outline>
    <contour>
      <point x="217" y="480" type="curve" smooth="yes"/>
      <point x="245.571" y="480"/>
      <point x="267" y="501.429"/>
      <point x="267" y="530" type="curve" smooth="yes"/>
      <point x="267" y="557.381"/>
      <point x="245.571" y="580"/>
      <point x="217" y="580" type="curve" smooth="yes"/>
      <point x="188.429" y="580"/>
      <point x="167" y="557.381"/>
      <point x="167" y="530" type="curve" smooth="yes"/>
      <point x="167" y="501.429"/>
      <point x="188.429" y="480"/>
    </contour>
  </outline>
</glyph>
<glyph name="threequarters" format="1">
  <advance width="1632"/>
  <unicode hex="00BE"/>
  <outline>
    <contour>
      <point x="343" y="0" type="line" name="av01.1"/>
      <point x="1354" y="1540" type="line" name="at01.1"/>
      <point x="1312" y="1540" type="line"/>
      <point x="294" y="0" type="line"/>
    </contour>
    <contour>
      <point x="155" y="883" type="line"/>
      <point x="208" y="829"/>
      <point x="273" y="800"/>
      <point x="345" y="800" type="curve" smooth="yes"/>
      <point x="468" y="800"/>
      <point x="561" y="886"/>
      <point x="561" y="998" type="curve" smooth="yes"/>
      <point x="561" y="1092"/>
      <point x="496" y="1161"/>
      <point x="395" y="1180" type="curve"/>
      <point x="478" y="1204"/>
      <point x="534" y="1272"/>
      <point x="534" y="1356" type="curve" smooth="yes"/>
      <point x="534" y="1453"/>
      <point x="457" y="1520"/>
      <point x="347" y="1520" type="curve" smooth="yes"/>
      <point x="281" y="1520"/>
      <point x="223" y="1496"/>
      <point x="175" y="1447" type="curve"/>
      <point x="199" y="1423" type="line"/>
      <point x="240" y="1462"/>
      <point x="290" y="1482"/>
      <point x="345" y="1482" type="curve" smooth="yes"/>
      <point x="433" y="1482"/>
      <point x="493" y="1430"/>
      <point x="493" y="1353" type="curve" smooth="yes"/>
      <point x="493" y="1264"/>
      <point x="413" y="1197"/>
      <point x="307" y="1197" type="curve" smooth="yes"/>
      <point x="288" y="1197" type="line"/>
      <point x="288" y="1159" type="line"/>
      <point x="307" y="1159" type="line" smooth="yes"/>
      <point x="434" y="1159"/>
      <point x="520" y="1093"/>
      <point x="520" y="997" type="curve" smooth="yes"/>
      <point x="520" y="907"/>
      <point x="444" y="838"/>
      <point x="345" y="838" type="curve" smooth="yes"/>
      <point x="284" y="838"/>
      <point x="230" y="863"/>
      <point x="178" y="916" type="curve"/>
    </contour>
    <contour>
      <point x="1394" y="0" type="line"/>
      <point x="1394" y="193" type="line"/>
      <point x="1477" y="193" type="line"/>
      <point x="1477" y="231" type="line"/>
      <point x="1394" y="231" type="line"/>
      <point x="1394" y="720" type="line"/>
      <point x="1363" y="720" type="line"/>
      <point x="989" y="227" type="line"/>
      <point x="989" y="193" type="line"/>
      <point x="1353" y="193" type="line"/>
      <point x="1353" y="0" type="line"/>
    </contour>
    <contour>
      <point x="1040" y="231" type="line"/>
      <point x="1353" y="643" type="line"/>
      <point x="1353" y="231" type="line"/>
    </contour>
  </outline>
</glyph>
<glyph name="Icircumflex" format="1">
  <advance width="416"/>
  <unicode hex="00CE"/>
  <outline>
    <contour>
      <point x="441" y="1670" type="line"/>
      <point x="406" y="1670" type="line" name="av01.1"/>
      <point x="207" y="1966" type="line"/>
      <point x="8" y="1670" type="line" name="av01"/>
      <point x="-27" y="1670" type="line"/>
      <point x="178" y="2000" type="line" name="at01.1"/>
      <point x="236" y="2000" type="line" name="at01.2"/>
    </contour>
    <contour>
      <point x="229" y="1500" type="line" name="at01"/>
      <point x="229" y="0" type="line" name="ab01"/>
      <point x="185" y="0" type="line" name="dh01"/>
      <point x="185" y="1500" type="line"/>
    </contour>
  </outline>
</glyph>
<glyph name="Eth" format="1">
  <advance width="1577"/>
  <unicode hex="00D0"/>
  <outline>
    <contour>
      <point x="215" y="0" type="line"/>
      <point x="588" y="0" type="line" smooth="yes"/>
      <point x="1147" y="0"/>
      <point x="1472" y="275"/>
      <point x="1472" y="750" type="curve" smooth="yes"/>
      <point x="1472" y="1225"/>
      <point x="1147" y="1500"/>
      <point x="588" y="1500" type="curve" smooth="yes"/>
      <point x="215" y="1500" type="line"/>
      <point x="215" y="769" type="line"/>
      <point x="45" y="769" type="line" name="dv02"/>
      <point x="45" y="731" type="line" name="dv01"/>
      <point x="215" y="731" type="line"/>
    </contour>
    <contour>
      <point x="845" y="731" type="line"/>
      <point x="845" y="769" type="line"/>
      <point x="259" y="769" type="line"/>
      <point x="259" y="1458" type="line"/>
      <point x="593" y="1458" type="line" smooth="yes"/>
      <point x="1118" y="1458"/>
      <point x="1427" y="1195"/>
      <point x="1427" y="750" type="curve" smooth="yes"/>
      <point x="1427" y="305"/>
      <point x="1118" y="42"/>
      <point x="593" y="42" type="curve" smooth="yes"/>
      <point x="259" y="42" type="line"/>
      <point x="259" y="731" type="line"/>
    </contour>
  </outline>
</glyph>
<glyph name="Ugrave" format="1">
  <advance width="1578"/>
  <unicode hex="00D9"/>
  <outline>
    <contour>
      <point x="823" y="1670" type="line"/>
      <point x="651" y="2000" type="line"/>
      <point x="598" y="2000" type="line"/>
      <point x="789" y="1670" type="line"/>
    </contour>
    <contour>
      <point x="1393" y="1500" type="line"/>
      <point x="1349" y="1500" type="line"/>
      <point x="1349" y="657" type="line" smooth="yes"/>
      <point x="1349" y="262"/>
      <point x="1132" y="12"/>
      <point x="789" y="12" type="curve" smooth="yes"/>
      <point x="447" y="12"/>
      <point x="229" y="263"/>
      <point x="229" y="657" type="curve" smooth="yes"/>
      <point x="229" y="1500" type="line"/>
      <point x="185" y="1500" type="line"/>
      <point x="185" y="667" type="line" smooth="yes"/>
      <point x="185" y="233"/>
      <point x="413" y="-30"/>
      <point x="789" y="-30" type="curve" smooth="yes"/>
      <point x="1166" y="-30"/>
      <point x="1393" y="232"/>
      <point x="1393" y="667" type="curve" smooth="yes"/>
    </contour>
  </outline>
</glyph>
<glyph name="ntilde" format="1">
  <advance width="1222"/>
  <unicode hex="00F1"/>
  <outline>
    <contour>
      <point x="910" y="1426" type="curve"/>
      <point x="869" y="1426" type="line"/>
      <point x="854" y="1352"/>
      <point x="814" y="1313"/>
      <point x="753" y="1313" type="curve" smooth="yes"/>
      <point x="702" y="1313"/>
      <point x="668" y="1341"/>
      <point x="632" y="1371" type="curve" smooth="yes"/>
      <point x="593" y="1403"/>
      <point x="551" y="1437"/>
      <point x="484" y="1437" type="curve" smooth="yes"/>
      <point x="400" y="1437"/>
      <point x="344" y="1384"/>
      <point x="325" y="1285" type="curve"/>
      <point x="366" y="1285" type="line"/>
      <point x="381" y="1359"/>
      <point x="424" y="1400"/>
      <point x="484" y="1400" type="curve" smooth="yes"/>
      <point x="534" y="1400"/>
      <point x="568" y="1371"/>
      <point x="604" y="1341" type="curve" smooth="yes"/>
      <point x="648" y="1304"/>
      <point x="687" y="1275"/>
      <point x="747" y="1275" type="curve" smooth="yes"/>
      <point x="830" y="1275"/>
      <point x="892" y="1332"/>
    </contour>
    <contour>
      <point x="1047" y="0" type="line"/>
      <point x="1047" y="563" type="line" smooth="yes"/>
      <point x="1047" y="851"/>
      <point x="890" y="1020"/>
      <point x="622" y="1020" type="curve" smooth="yes"/>
      <point x="426" y="1020"/>
      <point x="289" y="930"/>
      <point x="226" y="760" type="curve"/>
      <point x="226" y="1000" type="line"/>
      <point x="185" y="1000" type="line"/>
      <point x="185" y="0" type="line"/>
      <point x="226" y="0" type="line"/>
      <point x="226" y="563" type="line" smooth="yes"/>
      <point x="226" y="822"/>
      <point x="377" y="982"/>
      <point x="621" y="982" type="curve" smooth="yes"/>
      <point x="862" y="982"/>
      <point x="1006" y="826"/>
      <point x="1006" y="563" type="curve" smooth="yes"/>
      <point x="1006" y="0" type="line"/>
    </contour>
  </outline>
</glyph>
<glyph name="aogonek" format="1">
  <advance width="1082"/>
  <unicode hex="0105"/>
  <outline>
    <contour>
      <point x="907" y="0" type="line" name="n0"/>
      <point x="907" y="627" type="line" smooth="yes" name="n1"/>
      <point x="907" y="868"/>
      <point x="764" y="1020"/>
      <point x="536" y="1020" type="curve" smooth="yes"/>
      <point x="414" y="1020"/>
      <point x="292" y="976"/>
      <point x="196" y="898" type="curve" name="n7"/>
      <point x="221" y="861" type="line" name="n8"/>
      <point x="307" y="939"/>
      <point x="420" y="982"/>
      <point x="536" y="982" type="curve" smooth="yes"/>
      <point x="742" y="982"/>
      <point x="866" y="846"/>
      <point x="866" y="620" type="curve" smooth="yes" name="n14"/>
      <point x="866" y="500" type="line" name="n14.1"/>
      <point x="777" y="565" name="n15.1"/>
      <point x="662" y="601" name="n16.1"/>
      <point x="540" y="601" type="curve" smooth="yes" name="n17"/>
      <point x="304" y="601" name="n18"/>
      <point x="135" y="469" name="n19"/>
      <point x="135" y="285" type="curve" smooth="yes" name="n20"/>
      <point x="135" y="111" name="n21"/>
      <point x="287" y="-20" name="n22"/>
      <point x="491" y="-20" type="curve" smooth="yes" name="n23"/>
      <point x="667" y="-20"/>
      <point x="811" y="78"/>
      <point x="867" y="236" type="curve" name="n15"/>
      <point x="875" y="0" type="line" name="n16"/>
      <point x="876" y="0" type="line" name="ab01"/>
      <point x="761" y="-52"/>
      <point x="689" y="-147"/>
      <point x="689" y="-245" type="curve" smooth="yes"/>
      <point x="689" y="-346"/>
      <point x="765" y="-416"/>
      <point x="878" y="-416" type="curve" name="av01"/>
      <point x="878" y="-379" type="line"/>
      <point x="784" y="-371"/>
      <point x="730" y="-320"/>
      <point x="730" y="-243" type="curve" smooth="yes"/>
      <point x="730" y="-151"/>
      <point x="806" y="-46"/>
      <point x="905" y="0" type="curve"/>
    </contour>
    <contour>
      <point x="495" y="18" type="curve" smooth="yes" name="n4"/>
      <point x="315" y="18" name="n5"/>
      <point x="177" y="136" name="n6"/>
      <point x="177" y="290" type="curve" smooth="yes" name="n7.1"/>
      <point x="177" y="451" name="n8.1"/>
      <point x="325" y="563" name="n9"/>
      <point x="539" y="563" type="curve" smooth="yes" name="n10"/>
      <point x="660" y="563" name="n11"/>
      <point x="766" y="527" name="n12"/>
      <point x="866" y="454" type="curve" name="n13"/>
      <point x="866" y="387" type="line" smooth="yes" name="n1.1"/>
      <point x="866" y="180" name="n2"/>
      <point x="704" y="18" name="n3"/>
    </contour>
  </outline>
</glyph>
<glyph name="Hcircumflex" format="1">
  <advance width="1483"/>
  <unicode hex="0124"/>
  <outline>
    <contour>
      <point x="979" y="1670" type="line"/>
      <point x="774" y="2000" type="line" name="at01"/>
      <point x="716" y="2000" type="line" name="at01.1"/>
      <point x="511" y="1670" type="line"/>
      <point x="546" y="1670" type="line" name="av01"/>
      <point x="745" y="1966" type="line"/>
      <point x="944" y="1670" type="line" name="av01.1"/>
    </contour>
    <contour>
      <point x="229" y="0" type="line"/>
      <point x="229" y="720" type="line"/>
      <point x="1254" y="720" type="line"/>
      <point x="1254" y="0" type="line"/>
      <point x="1298" y="0" type="line"/>
      <point x="1298" y="1500" type="line"/>
      <point x="1254" y="1500" type="line"/>
      <point x="1254" y="762" type="line"/>
      <point x="229" y="762" type="line"/>
      <point x="229" y="1500" type="line"/>
      <point x="185" y="1500" type="line"/>
      <point x="185" y="0" type="line"/>
    </contour>
  </outline>
</glyph>
<glyph name="uni013B" format="1">
  <advance width="1150"/>
  <unicode hex="013B"/>
  <outline>
    <contour>
      <point x="1045" y="0" type="line"/>
      <point x="1045" y="42" type="line"/>
      <point x="229" y="42" type="line"/>
      <point x="229" y="1500" type="line"/>
      <point x="185" y="1500" type="line"/>
      <point x="185" y="0" type="line"/>
    </contour>
    <contour>
      <point x="532" y="-442" type="line"/>
      <point x="619" y="-396"/>
      <point x="676" y="-296"/>
      <point x="676" y="-187" type="curve" smooth="yes"/>
      <point x="676" y="-149"/>
      <point x="669" y="-113"/>
      <point x="656" y="-78" type="curve"/>
      <point x="620" y="-90" type="line"/>
      <point x="633" y="-121"/>
      <point x="639" y="-154"/>
      <point x="639" y="-187" type="curve" smooth="yes"/>
      <point x="639" y="-276"/>
      <point x="594" y="-367"/>
      <point x="516" y="-418" type="curve"/>
    </contour>
  </outline>
</glyph>
<glyph name="oe" format="1">
  <advance width="2163"/>
  <unicode hex="0153"/>
  <outline>
    <contour>
      <point x="2014" y="129" type="curve"/>
      <point x="1991" y="160" type="line"/>
      <point x="1877" y="68"/>
      <point x="1744" y="18"/>
      <point x="1607" y="18" type="curve" smooth="yes"/>
      <point x="1334" y="18"/>
      <point x="1126" y="216"/>
      <point x="1126" y="492" type="curve"/>
      <point x="2058" y="492" type="line"/>
      <point x="2058" y="520" type="line" smooth="yes"/>
      <point x="2058" y="813"/>
      <point x="1860" y="1020"/>
      <point x="1579" y="1020" type="curve" smooth="yes"/>
      <point x="1343" y="1020"/>
      <point x="1161" y="874"/>
      <point x="1103" y="657" type="curve"/>
      <point x="1040" y="871"/>
      <point x="851" y="1020"/>
      <point x="616" y="1020" type="curve" smooth="yes"/>
      <point x="326" y="1020"/>
      <point x="105" y="796"/>
      <point x="105" y="500" type="curve" smooth="yes"/>
      <point x="105" y="204"/>
      <point x="326" y="-20"/>
      <point x="616" y="-20" type="curve" smooth="yes"/>
      <point x="853" y="-20"/>
      <point x="1044" y="132"/>
      <point x="1105" y="349" type="curve"/>
      <point x="1167" y="127"/>
      <point x="1359" y="-20"/>
      <point x="1609" y="-20" type="curve" smooth="yes"/>
      <point x="1757" y="-20"/>
      <point x="1897" y="32"/>
    </contour>
    <contour>
      <point x="616" y="18" type="curve" smooth="yes"/>
      <point x="349" y="18"/>
      <point x="147" y="226"/>
      <point x="147" y="500" type="curve" smooth="yes"/>
      <point x="147" y="774"/>
      <point x="349" y="982"/>
      <point x="616" y="982" type="curve" smooth="yes"/>
      <point x="881" y="982"/>
      <point x="1083" y="774"/>
      <point x="1083" y="500" type="curve" smooth="yes"/>
      <point x="1083" y="226"/>
      <point x="881" y="18"/>
    </contour>
    <contour>
      <point x="1126" y="530" type="line"/>
      <point x="1135" y="795"/>
      <point x="1322" y="982"/>
      <point x="1579" y="982" type="curve" smooth="yes"/>
      <point x="1835" y="982"/>
      <point x="2012" y="797"/>
      <point x="2021" y="530" type="curve"/>
    </contour>
  </outline>
</glyph>
<glyph name="Scedilla" format="1">
  <advance width="1156"/>
  <unicode hex="015E"/>
  <outline>
    <contour>
      <point x="115" y="131" type="line"/>
      <point x="237" y="30"/>
      <point x="386" y="-30"/>
      <point x="538" y="-30" type="curve"/>
      <point x="498" y="-135" type="line"/>
      <point x="513" y="-133"/>
      <point x="527" y="-132"/>
      <point x="540" y="-132" type="curve" smooth="yes"/>
      <point x="634" y="-132"/>
      <point x="700" y="-177"/>
      <point x="700" y="-246" type="curve" smooth="yes"/>
      <point x="700" y="-318"/>
      <point x="627" y="-369"/>
      <point x="526" y="-369" type="curve" smooth="yes"/>
      <point x="490" y="-369"/>
      <point x="453" y="-362"/>
      <point x="417" y="-349" type="curve"/>
      <point x="405" y="-388" type="line"/>
      <point x="451" y="-401"/>
      <point x="493" y="-407"/>
      <point x="531" y="-407" type="curve" smooth="yes"/>
      <point x="653" y="-407"/>
      <point x="741" y="-341"/>
      <point x="741" y="-249" type="curve" smooth="yes"/>
      <point x="741" y="-159"/>
      <point x="660" y="-100"/>
      <point x="552" y="-100" type="curve"/>
      <point x="580" y="-29" type="line"/>
      <point x="839" y="-18"/>
      <point x="1021" y="150"/>
      <point x="1021" y="384" type="curve" smooth="yes"/>
      <point x="1021" y="636"/>
      <point x="811" y="725"/>
      <point x="609" y="811" type="curve" smooth="yes"/>
      <point x="421" y="891"/>
      <point x="239" y="968"/>
      <point x="239" y="1171" type="curve" smooth="yes"/>
      <point x="239" y="1359"/>
      <point x="394" y="1488"/>
      <point x="611" y="1488" type="curve" smooth="yes"/>
      <point x="710" y="1488"/>
      <point x="810" y="1461"/>
      <point x="902" y="1410" type="curve"/>
      <point x="925" y="1449" type="line"/>
      <point x="833" y="1502"/>
      <point x="726" y="1530"/>
      <point x="616" y="1530" type="curve" smooth="yes"/>
      <point x="365" y="1530"/>
      <point x="194" y="1385"/>
      <point x="194" y="1171" type="curve" smooth="yes"/>
      <point x="194" y="942"/>
      <point x="390" y="858"/>
      <point x="586" y="775" type="curve" smooth="yes"/>
      <point x="781" y="692"/>
      <point x="976" y="610"/>
      <point x="976" y="382" type="curve" smooth="yes"/>
      <point x="976" y="165"/>
      <point x="799" y="12"/>
      <point x="549" y="12" type="curve" smooth="yes"/>
      <point x="400" y="12"/>
      <point x="259" y="66"/>
      <point x="140" y="166" type="curve"/>
    </contour>
  </outline>
</glyph>
<glyph name="tcedilla" format="1">
  <advance width="793"/>
  <unicode hex="0163"/>
  <outline>
    <contour>
      <point x="678" y="21" type="curve"/>
      <point x="662" y="56" type="line"/>
      <point x="615" y="31"/>
      <point x="569" y="18"/>
      <point x="525" y="18" type="curve" smooth="yes"/>
      <point x="408" y="18"/>
      <point x="331" y="107"/>
      <point x="331" y="243" type="curve" smooth="yes"/>
      <point x="331" y="962" type="line"/>
      <point x="651" y="962" type="line"/>
      <point x="651" y="1000" type="line"/>
      <point x="331" y="1000" type="line"/>
      <point x="331" y="1250" type="line"/>
      <point x="290" y="1250" type="line"/>
      <point x="290" y="1000" type="line"/>
      <point x="115" y="1000" type="line"/>
      <point x="115" y="962" type="line"/>
      <point x="290" y="962" type="line"/>
      <point x="290" y="236" type="line" smooth="yes"/>
      <point x="290" y="125"/>
      <point x="337" y="41"/>
      <point x="415" y="3" type="curve"/>
      <point x="362" y="-135" type="line"/>
      <point x="377" y="-133"/>
      <point x="391" y="-132"/>
      <point x="404" y="-132" type="curve" smooth="yes"/>
      <point x="498" y="-132"/>
      <point x="564" y="-177"/>
      <point x="564" y="-246" type="curve" smooth="yes"/>
      <point x="564" y="-318"/>
      <point x="491" y="-369"/>
      <point x="390" y="-369" type="curve" smooth="yes"/>
      <point x="354" y="-369"/>
      <point x="317" y="-362"/>
      <point x="281" y="-349" type="curve"/>
      <point x="269" y="-388" type="line"/>
      <point x="315" y="-401"/>
      <point x="357" y="-407"/>
      <point x="395" y="-407" type="curve" smooth="yes"/>
      <point x="517" y="-407"/>
      <point x="605" y="-341"/>
      <point x="605" y="-249" type="curve" smooth="yes"/>
      <point x="605" y="-159"/>
      <point x="524" y="-100"/>
      <point x="416" y="-100" type="curve"/>
      <point x="451" y="-10" type="line" name="ih01"/>
      <point x="473" y="-16"/>
      <point x="497" y="-20"/>
      <point x="522" y="-20" type="curve" smooth="yes"/>
      <point x="573" y="-20"/>
      <point x="627" y="-6"/>
    </contour>
  </outline>
</glyph>
<glyph name="Tbar" format="1">
  <advance width="1218"/>
  <unicode hex="0166"/>
  <outline>
    <contour>
      <point x="919" y="731" type="line" name="av02"/>
      <point x="919" y="769" type="line"/>
      <point x="631" y="769" type="line"/>
      <point x="631" y="1458" type="line"/>
      <point x="1153" y="1458" type="line"/>
      <point x="1153" y="1500" type="line"/>
      <point x="65" y="1500" type="line"/>
      <point x="65" y="1458" type="line"/>
      <point x="587" y="1458" type="line"/>
      <point x="587" y="769" type="line"/>
      <point x="299" y="769" type="line" name="av01"/>
      <point x="299" y="731" type="line"/>
      <point x="587" y="731" type="line"/>
      <point x="587" y="0" type="line"/>
      <point x="631" y="0" type="line"/>
      <point x="631" y="731" type="line"/>
    </contour>
  </outline>
</glyph>
<glyph name="Umacron" format="1">
  <advance width="1578"/>
  <unicode hex="016A"/>
  <outline>
    <contour>
      <point x="1099" y="1832" type="line" name="av02"/>
      <point x="1099" y="1870" type="line"/>
      <point x="479" y="1870" type="line" name="av01"/>
      <point x="479" y="1832" type="line"/>
    </contour>
    <contour>
      <point x="1393" y="1500" type="line"/>
      <point x="1349" y="1500" type="line"/>
      <point x="1349" y="657" type="line" smooth="yes"/>
      <point x="1349" y="262"/>
      <point x="1132" y="12"/>
      <point x="789" y="12" type="curve" smooth="yes"/>
      <point x="447" y="12"/>
      <point x="229" y="263"/>
      <point x="229" y="657" type="curve" smooth="yes"/>
      <point x="229" y="1500" type="line"/>
      <point x="185" y="1500" type="line"/>
      <point x="185" y="667" type="line" smooth="yes"/>
      <point x="185" y="233"/>
      <point x="413" y="-30"/>
      <point x="789" y="-30" type="curve" smooth="yes"/>
      <point x="1166" y="-30"/>
      <point x="1393" y="232"/>
      <point x="1393" y="667" type="curve" smooth="yes"/>
    </contour>
  </outline>
</glyph>
<glyph name="Uhungarumlaut" format="1">
  <advance width="1578"/>
  <unicode hex="0170"/>
  <outline>
    <contour>
      <point x="605" y="1670" type="line"/>
      <point x="796" y="2000" type="line"/>
      <point x="742" y="2000" type="line"/>
      <point x="571" y="1670" type="line"/>
    </contour>
    <contour>
      <point x="956" y="1670" type="line"/>
      <point x="1147" y="2000" type="line"/>
      <point x="1093" y="2000" type="line"/>
      <point x="922" y="1670" type="line"/>
    </contour>
    <contour>
      <point x="1393" y="1500" type="line"/>
      <point x="1349" y="1500" type="line"/>
      <point x="1349" y="657" type="line" smooth="yes"/>
      <point x="1349" y="262"/>
      <point x="1132" y="12"/>
      <point x="789" y="12" type="curve" smooth="yes"/>
      <point x="447" y="12"/>
      <point x="229" y="263"/>
      <point x="229" y="657" type="curve" smooth="yes"/>
      <point x="229" y="1500" type="line"/>
      <point x="185" y="1500" type="line"/>
      <point x="185" y="667" type="line" smooth="yes"/>
      <point x="185" y="233"/>
      <point x="413" y="-30"/>
      <point x="789" y="-30" type="curve" smooth="yes"/>
      <point x="1166" y="-30"/>
      <point x="1393" y="232"/>
      <point x="1393" y="667" type="curve" smooth="yes"/>
    </contour>
  </outline>
</glyph>
<glyph name="Ycircumflex" format="1">
  <advance width="1348"/>
  <unicode hex="0176"/>
  <outline>
    <contour>
      <point x="908" y="1670" type="line"/>
      <point x="703" y="2000" type="line" name="at01"/>
      <point x="645" y="2000" type="line" name="at01.1"/>
      <point x="440" y="1670" type="line"/>
      <point x="475" y="1670" type="line" name="av01"/>
      <point x="674" y="1966" type="line"/>
      <point x="873" y="1670" type="line" name="av01.1"/>
    </contour>
    <contour>
      <point x="695" y="0" type="line"/>
      <point x="695" y="641" type="line"/>
      <point x="1293" y="1500" type="line"/>
      <point x="1240" y="1500" type="line"/>
      <point x="674" y="686" type="line"/>
      <point x="108" y="1500" type="line"/>
      <point x="55" y="1500" type="line"/>
      <point x="651" y="641" type="line"/>
      <point x="651" y="0" type="line"/>
    </contour>
  </outline>
</glyph>
<glyph name="commaaccent" format="1">
  <advance width="529"/>
  <unicode hex="0326"/>
  <outline>
    <contour>
      <point x="201" y="-442" type="line"/>
      <point x="288" y="-396"/>
      <point x="344" y="-296"/>
      <point x="344" y="-187" type="curve" smooth="yes"/>
      <point x="344" y="-149"/>
      <point x="338" y="-113"/>
      <point x="325" y="-78" type="curve"/>
      <point x="289" y="-90" type="line"/>
      <point x="302" y="-121"/>
      <point x="308" y="-154"/>
      <point x="308" y="-187" type="curve" smooth="yes"/>
      <point x="308" y="-276"/>
      <point x="263" y="-367"/>
      <point x="185" y="-418" type="curve"/>
    </contour>
  </outline>
</glyph>
<glyph name="pi" format="1">
  <advance width="1271"/>
  <unicode hex="03C0"/>
  <outline>
    <contour>
      <point x="1142" y="68" type="curve"/>
      <point x="1107" y="85" type="line"/>
      <point x="1085" y="43"/>
      <point x="1046" y="18"/>
      <point x="1005" y="18" type="curve" smooth="yes"/>
      <point x="939" y="18"/>
      <point x="893" y="77"/>
      <point x="893" y="160" type="curve" smooth="yes"/>
      <point x="893" y="962" type="line"/>
      <point x="1166" y="962" type="line"/>
      <point x="1166" y="1000" type="line"/>
      <point x="290" y="1000" type="line" smooth="yes"/>
      <point x="200" y="1000"/>
      <point x="116" y="974"/>
      <point x="45" y="924" type="curve"/>
      <point x="64" y="891" type="line"/>
      <point x="128" y="937"/>
      <point x="209" y="962"/>
      <point x="287" y="962" type="curve" smooth="yes"/>
      <point x="361" y="962" type="line"/>
      <point x="368" y="813"/>
      <point x="372" y="659"/>
      <point x="372" y="497" type="curve" smooth="yes"/>
      <point x="372" y="328"/>
      <point x="368" y="172"/>
      <point x="359" y="0" type="curve"/>
      <point x="400" y="0" type="line"/>
      <point x="409" y="165"/>
      <point x="413" y="334"/>
      <point x="413" y="500" type="curve" smooth="yes"/>
      <point x="413" y="673"/>
      <point x="410" y="816"/>
      <point x="402" y="962" type="curve"/>
      <point x="849" y="962" type="line"/>
      <point x="849" y="148" type="line" smooth="yes"/>
      <point x="849" y="53"/>
      <point x="917" y="-20"/>
      <point x="1004" y="-20" type="curve" smooth="yes"/>
      <point x="1063" y="-20"/>
      <point x="1115" y="14"/>
    </contour>
  </outline>
</glyph>
<glyph name="ygrave" format="1">
  <advance width="1082"/>
  <unicode hex="1EF3"/>
  <outline>
    <contour>
      <point x="376" y="-500" type="line"/>
      <point x="997" y="1000" type="line"/>
      <point x="953" y="1000" type="line"/>
      <point x="565" y="64" type="line"/>
      <point x="130" y="1000" type="line"/>
      <point x="85" y="1000" type="line"/>
      <point x="544" y="13" type="line"/>
      <point x="332" y="-500" type="line"/>
    </contour>
    <contour>
      <point x="653" y="1170" type="line"/>
      <point x="481" y="1500" type="line"/>
      <point x="429" y="1500" type="line"/>
      <point x="619" y="1170" type="line"/>
    </contour>
  </outline>
</glyph>
<glyph name="four.superior" format="1">
  <advance width="722"/>
  <unicode hex="2074"/>
  <outline>
    <contour>
      <point x="531" y="730" type="line"/>
      <point x="531" y="941" type="line"/>
      <point x="617" y="941" type="line"/>
      <point x="617" y="979" type="line"/>
      <point x="531" y="979" type="line"/>
      <point x="531" y="1500" type="line"/>
      <point x="508" y="1500" type="line"/>
      <point x="105" y="976" type="line"/>
      <point x="105" y="941" type="line"/>
      <point x="490" y="941" type="line"/>
      <point x="490" y="730" type="line"/>
    </contour>
    <contour>
      <point x="490" y="979" type="line"/>
      <point x="154" y="979" type="line"/>
      <point x="490" y="1415" type="line"/>
    </contour>
  </outline>
</glyph>
<glyph name="arrowup" format="1">
  <advance width="1073"/>
  <unicode hex="2191"/>
  <outline>
    <contour>
      <point x="559" y="0" type="line"/>
      <point x="559" y="1425" type="line"/>
      <point x="839" y="1000" type="line" name="av01.2"/>
      <point x="888" y="1000" type="line"/>
      <point x="559" y="1500" type="line" name="at01.1"/>
      <point x="513" y="1500" type="line" name="at01.2"/>
      <point x="185" y="1000" type="line"/>
      <point x="235" y="1000" type="line" name="av01.1"/>
      <point x="515" y="1425" type="line"/>
      <point x="515" y="0" type="line"/>
    </contour>
  </outline>
</glyph>
<glyph name="approxequal" format="1">
  <advance width="1412"/>
  <unicode hex="2248"/>
  <outline>
    <contour>
      <point x="1227" y="758" type="curve" name="iv01.1"/>
      <point x="1227" y="800" type="line" name="iv01.2"/>
      <point x="1135" y="700"/>
      <point x="1046" y="652"/>
      <point x="956" y="652" type="curve" smooth="yes"/>
      <point x="871" y="652"/>
      <point x="793" y="693"/>
      <point x="714" y="735" type="curve" smooth="yes"/>
      <point x="634" y="778"/>
      <point x="555" y="821"/>
      <point x="467" y="821" type="curve" smooth="yes"/>
      <point x="376" y="821"/>
      <point x="284" y="774"/>
      <point x="185" y="677" type="curve"/>
      <point x="185" y="635" type="line"/>
      <point x="282" y="732"/>
      <point x="373" y="779"/>
      <point x="465" y="779" type="curve" smooth="yes"/>
      <point x="553" y="779"/>
      <point x="632" y="736"/>
      <point x="712" y="693" type="curve" smooth="yes"/>
      <point x="791" y="651"/>
      <point x="869" y="610"/>
      <point x="954" y="610" type="curve" smooth="yes"/>
      <point x="1044" y="610"/>
      <point x="1133" y="658"/>
    </contour>
    <contour>
      <point x="1227" y="279" type="curve" name="iv01"/>
      <point x="1227" y="321" type="line" name="iv01"/>
      <point x="1135" y="221"/>
      <point x="1046" y="172"/>
      <point x="956" y="172" type="curve" smooth="yes"/>
      <point x="871" y="172"/>
      <point x="793" y="214"/>
      <point x="714" y="256" type="curve" smooth="yes"/>
      <point x="634" y="299"/>
      <point x="555" y="342"/>
      <point x="467" y="342" type="curve" smooth="yes"/>
      <point x="376" y="342"/>
      <point x="284" y="295"/>
      <point x="185" y="198" type="curve"/>
      <point x="185" y="156" type="line"/>
      <point x="282" y="253"/>
      <point x="373" y="300"/>
      <point x="465" y="300" type="curve" smooth="yes"/>
      <point x="553" y="300"/>
      <point x="632" y="257"/>
      <point x="712" y="214" type="curve" smooth="yes"/>
      <point x="791" y="172"/>
      <point x="869" y="130"/>
      <point x="954" y="130" type="curve" smooth="yes"/>
      <point x="1044" y="130"/>
      <point x="1133" y="179"/>
    </contour>
  </outline>
</glyph>
